The Shawshank Redemption *1994*[BluRay][1080p][ENG, POL]

General information:
Country: USA
Release: 10 September 1994 (Toronto International Film Festival)
Genre: Crime, Drama 
Director: Frank Darabont
Screenplay: Frank Darabont, Stephen King (short story *Rita Hayworth and Shawshank Redemption*)
Original Music: Thomas Newman 
Cinematography by: Roger Deakins
Duration: 2h 22mn
Language: English, Polish
Subtitles: English, Polish
Rating: 9.0/10 - 107493 votes 

Cast:
Tim Robbins  ...  Andy Dufresne  
Morgan Freeman  ...  Ellis Boyd 'Red' Redding  
Bob Gunton  ...  Warden Norton  
William Sadler  ...  Heywood  
Clancy Brown  ...  Captain Hadley  
Gil Bellows  ...  Tommy  
Mark Rolston  ...  Bogs Diamond  
James Whitmore  ...  Brooks Hatlen  
Jeffrey DeMunn  ...  1946 D.A.  
Larry Brandenburg  ...  Skeet  
Neil Giuntoli  ...  Jigger  
Brian Libby  ...  Floyd  
David Proval  ...  Snooze  
Joseph Ragno  ...  Ernie  
Jude Ciccolella  ...  Guard Mert  

Plot:
Two imprisoned men bond over a number of years, finding solace and eventual redemption through acts of common decency. 

Specifications:
General
Complete name                    : C:\GOTowe_Torki\Shawshank Redemption_BluRay_1080p_x264.mkv
Format                           : Matroska
Overall bit rate                 : 7 502 Kbps

Video
Format                           : AVC
Format/Info                      : Advanced Video Codec
Format profile                   : High@L4.1
Format settings, CABAC           : Yes
Format settings, ReFrames        : 4 frames
Muxing mode                      : Container profile=Unknown@4.1
Codec ID                         : V_MPEG4/ISO/AVC
Bit rate                         : 6 420 Kbps
Width                            : 1 920 pixels
Height                           : 1 080 pixels
Display aspect ratio             : 16:9
Frame rate                       : 23.976 fps

Audio 1
Format                           : AC-3
Format/Info                      : Audio Coding 3
Mode extension                   : CM (complete main)
Codec ID                         : A_AC3
Bit rate mode                    : Constant
Bit rate                         : 640 Kbps
Channel(s)                       : 6 channels
Channel positions                : Front: L C R, Side: L R, LFE
Sampling rate                    : 48.0 KHz
Stream size                      : 653 MiB (9%)
Title                            : English

Audio 2
Format                           : AC-3
Format/Info                      : Audio Coding 3
Mode extension                   : CM (complete main)
Codec ID                         : A_AC3
Bit rate mode                    : Constant
Bit rate                         : 448 Kbps
Channel(s)                       : 6 channels
Channel positions                : Front: L C R, Side: L R, LFE
Sampling rate                    : 48.0 KHz
Stream size                      : 457 MiB (6%)
Title                            : Polish
Language                         : Polish

Text 1
Format                           : UTF-8
Codec ID                         : S_TEXT/UTF8
Codec ID/Info                    : UTF-8 Plain Text
Title                            : English

Text 2
Format                           : UTF-8
Codec ID                         : S_TEXT/UTF8
Codec ID/Info                    : UTF-8 Plain Text
Title                            : Polish
Language                         : Polish
